#!OML:ASF X:\für Bonn\!DataBase\2005_08_12_Daniel\c3d\Daniel.ASF
:FULLY-SPECIFIED
:DEGREES
16
root 0.589438 17.0269 0.213403 -358.091 -84.4831 349.732
lowerback 18.3243 -0.0572032 1.42319
upperback 2.16303 -0.226188 -3.25206
thorax -7.95797 -0.27271 -4.2672
lowerneck -0.965222 -1.80931 -4.48219
upperneck 4.21636 -2.40774 2.10992
head 1.5674 -1.24121 1.38346
rclavicle 4.07509e-015 -2.22639e-014
rhumerus -222.222 -215.283 64.3828
rradius 61.5883
rwrist 5.99691
rhand -22.6822 20.4452
rfingers 7.12502
rthumb 3.74995 -9.50153
lclavicle 4.07509e-015 -2.22639e-014
lhumerus -226.718 197.735 -75.337
lradius 80.8831
lwrist -8.95641
lhand 3.10014 361.815
lfingers 7.12502
lthumb 28.5562 29.654
rfemur 7.75233 17.3352 22.233
rtibia 23.8869
rfoot -42.1568 -25.7171
rtoes -7.42998
lfemur -16.8587 -24.5572 -10.969
ltibia 36.1797
lfoot -18.0493 -0.403286
ltoes -0.0604487
17
root 0.634964 17.0235 0.166534 -357.143 -84.1407 348.919
lowerback 18.4907 -0.196626 1.78453
upperback 2.19683 -0.329647 -3.17992
thorax -8.02191 -0.333247 -4.37291
lowerneck -1.19819 -1.84546 -4.45873
upperneck 4.14281 -2.44327 2.10264
head 1.58545 -1.25611 1.37501
rclavicle -9.74045e-015 2.54444e-014
rhumerus -222.39 -215.879 64.3023
rradius 61.8296
rwrist 5.37669
rhand -22.8678 20.2832
rfingers 7.12502
rthumb 3.57072 -9.66665
lclavicle -9.74045e-015 2.54444e-014
lhumerus -226.466 197.54 -75.5938
lradius 80.8981
lwrist -8.89412
lhand 2.44906 361.629
lfingers 7.12502
lthumb 27.934 29.571
rfemur 7.56093 18.3351 22.9209
rtibia 24.0741
rfoot -43.6248 -26.1661
rtoes -6.90163
lfemur -17.4345 -24.0939 -10.4859
ltibia 36.1912
lfoot -17.4642 -0.859497
ltoes -0.435672
18
root 0.682485 17.0212 0.122579 -356.506 -83.9036 348.419
lowerback 18.6885 -0.309295 2.05226
upperback 2.21248 -0.413926 -3.08936
thorax -8.12125 -0.382228 -4.40968
lowerneck -1.41874 -1.8599 -4.32702
upperneck 4.06288 -2.44983 1.99625
head 1.59426 -1.2568 1.3164
rclavicle 1.19271e-015 7.95139e-016
rhumerus -222.619 -216.479 64.2328
rradius 62.1068
rwrist 4.75947
rhand -23.0242 20.1701
rfingers 7.12502
rthumb 3.41969 -9.78226
lclavicle 1.19271e-015 7.95139e-016
lhumerus -226.184 197.247 -75.8231
lradius 80.8793
lwrist -8.79575
lhand 1.86994 361.531
lfingers 7.12502
lthumb 27.3802 29.5619
rfemur 7.28337 19.2497 23.4829
rtibia 24.3303
rfoot -44.8793 -26.5565
rtoes -6.5207
lfemur -17.9779 -23.5915 -10.078
ltibia 36.1977
lfoot -16.9366 -1.22784
ltoes -0.787444
19
root 0.732591 17.0192 0.0815397 -356.057 -83.7354 348.109
lowerback 18.9107 -0.389292 2.29725
upperback 2.22413 -0.460505 -3.01556
thorax -8.23516 -0.413411 -4.46123
lowerneck -1.62239 -1.88009 -4.06942
upperneck 3.94947 -2.46651 1.82522
head 1.58607 -1.26176 1.21522
rclavicle -1.99779e-014 -4.77083e-015
rhumerus -222.75 -216.96 64.2048
rradius 62.2954
rwrist 4.31297
rhand -23.2054 20.0386
rfingers 7.12502
rthumb 3.2447 -9.91641
lclavicle -1.99779e-014 -4.77083e-015
lhumerus -225.913 197.016 -76.0317
lradius 80.8587
lwrist -8.74689
lhand 1.23813 361.521
lfingers 7.12502
lthumb 26.7757 29.6457
rfemur 6.92904 20.0209 23.9134
rtibia 24.6313
rfoot -45.9599 -26.8043
rtoes -6.1597
lfemur -18.4991 -23.0734 -9.72853
ltibia 36.2174
lfoot -16.4474 -1.50592
ltoes -1.13448
20
root 0.782073 17.0151 0.0422089 -355.443 -83.5927 347.613
lowerback 19.1328 -0.479143 2.56152
upperback 2.25171 -0.514573 -2.93595
thorax -8.33249 -0.448576 -4.51494
lowerneck -1.83608 -1.88071 -3.81184
upperneck 3.83436 -2.45744 1.64121
head 1.57811 -1.25438 1.11081
rclavicle 1.08338e-014 -2.38542e-015
rhumerus -222.842 -217.388 64.2064
rradius 62.4664
rwrist 3.92335
rhand -23.3442 19.9552
rfingers 7.12502
rthumb 3.11068 -10.0018
lclavicle 1.08338e-014 -2.38542e-015
lhumerus -225.607 196.763 -76.2651
lradius 80.8212
lwrist -8.63039
lhand 0.644815 361.512
lfingers 7.12502
lthumb 26.2078 29.7222
rfemur 6.57749 20.7928 24.3476
rtibia 24.9658
rfoot -47.0857 -26.9268
rtoes -5.881
lfemur -18.9897 -22.5285 -9.38914
ltibia 36.2518
lfoot -15.9961 -1.76806
ltoes -1.38224
21
root 0.830913 17.0112 0.00462374 -354.66 -83.4648 346.969
lowerback 19.3138 -0.559014 2.86014
upperback 2.27625 -0.547021 -2.85569
thorax -8.40898 -0.474047 -4.59263
lowerneck -1.97902 -1.88962 -3.54031
upperneck 3.67146 -2.4634 1.44814
head 1.54256 -1.25469 1.00173
rclavicle -4.27387e-015 -1.98785e-014
rhumerus -222.911 -217.7 64.2498
rradius 62.6516
rwrist 3.65661
rhand -23.4641 19.7803
rfingers 7.12502
rthumb 2.99492 -10.1784
lclavicle -4.27387e-015 -1.98785e-014
lhumerus -225.274 196.55 -76.4812
lradius 80.7352
lwrist -8.52778
lhand 0.066 361.562
lfingers 7.12502
lthumb 25.6536 29.8536
rfemur 6.18423 21.4843 24.7491
rtibia 25.3088
rfoot -48.0979 -27.0211
rtoes -5.74617
lfemur -19.497 -21.9989 -9.04159
ltibia 36.3233
lfoot -15.5871 -1.9956
ltoes -1.37654
22
root 0.877077 17.0068 -0.0324288 -354.147 -83.373 346.566
lowerback 19.4921 -0.632116 3.11402
upperback 2.31543 -0.58075 -2.78586
thorax -8.46791 -0.498708 -4.65511
lowerneck -2.10742 -1.88354 -3.23749
upperneck 3.49907 -2.45131 1.23287
head 1.5002 -1.24629 0.881348
rclavicle 4.67144e-015 1.90833e-014
rhumerus -222.978 -218.014 64.2916
rradius 62.8659
rwrist 3.36401
rhand -23.5519 19.5464
rfingers 7.12502
rthumb 2.91014 -10.4135
lclavicle 4.67144e-015 1.90833e-014
lhumerus -224.913 196.345 -76.7003
lradius 80.6257
lwrist -8.38574
lhand -0.507948 361.685
lfingers 7.12502
lthumb 25.1038 30.0545
rfemur 5.8342 22.1933 25.1146
rtibia 25.6438
rfoot -49.0826 -27.0813
rtoes -5.58541
lfemur -19.9567 -21.4516 -8.7639
ltibia 36.4272
lfoot -15.2369 -2.19683
ltoes -1.38615
23
root 0.919405 17.0014 -0.0673135 -353.464 -83.2888 346.01
lowerback 19.6171 -0.705884 3.38172
upperback 2.35392 -0.610281 -2.69759
thorax -8.49798 -0.520565 -4.70562
lowerneck -2.21652 -1.87552 -2.97306
upperneck 3.32858 -2.43654 0.997902
head 1.45567 -1.23785 0.762176
rclavicle 5.76476e-015 -1.43125e-014
rhumerus -223.086 -218.299 64.3751
rradius 63.1148
rwrist 3.14121
rhand -23.6285 19.2479
rfingers 7.12502
rthumb 2.83613 -10.713
lclavicle 5.76476e-015 -1.43125e-014
lhumerus -224.529 196.118 -76.8939
lradius 80.4791
lwrist -8.20461
lhand -1.1015 361.838
lfingers 7.12502
lthumb 24.5349 30.2858
rfemur 5.47575 22.8535 25.4698
rtibia 25.9682
rfoot -50.0147 -27.1111
rtoes -5.42733
lfemur -20.4182 -20.942 -8.48117
ltibia 36.5727
lfoot -14.9509 -2.32014
ltoes -1.24525
